<!DOCTYPE svg PUBLIC "-//W3C//DTD SVG 20010904//EN" "http://www.w3.org/TR/2001/REC-SVG-20010904/DTD/svg10.dtd">
<svg version="1.0" xmlns="http://www.w3.org/2000/svg" width="500px" height="500px" viewBox="0 0 1970 1970" preserveAspectRatio="xMidYMid meet">
<g id="layer101" fill="#ad5627" stroke="none">
 <path d="M0 985 l0 -985 985 0 985 0 0 985 0 985 -985 0 -985 0 0 -985z"/>
 </g>
<g id="layer102" fill="#be682e" stroke="none">
 <path d="M0 985 l0 -985 985 0 985 0 0 985 0 985 -985 0 -985 0 0 -985z m1225 682 c22 -5 47 -13 56 -17 9 -5 33 -12 53 -15 20 -4 39 -11 42 -16 3 -5 14 -9 25 -9 10 0 27 -4 37 -9 9 -5 28 -13 42 -19 161 -64 177 -85 200 -265 5 -40 12 -146 15 -237 4 -102 13 -182 22 -210 21 -63 27 -174 14 -245 -25 -132 -112 -252 -233 -320 -38 -21 -147 -45 -154 -34 -3 5 4 9 15 9 30 0 118 37 159 67 109 80 161 156 169 254 5 50 3 58 -14 63 -29 9 -56 61 -44 85 6 11 16 21 23 23 6 2 -10 21 -37 42 -60 45 -108 48 -113 6 -12 -121 -57 -222 -135 -301 -66 -67 -109 -94 -187 -118 -130 -41 -167 -89 -90 -118 34 -12 33 -13 -27 -8 -74 6 -108 18 -125 44 -11 18 -20 19 -122 14 -72 -3 -120 -1 -136 6 -21 10 -15 11 33 6 59 -5 73 5 45 33 -19 19 3 29 78 37 82 9 107 1 101 -31 -2 -13 -3 -24 -1 -24 27 0 193 49 234 68 76 38 163 122 197 190 23 47 28 73 31 153 4 95 4 96 -23 117 -31 24 -96 32 -77 9 18 -21 30 -91 20 -116 -7 -19 -13 -22 -36 -16 -15 3 -39 18 -53 31 l-26 25 -8 -28 c-21 -85 -69 -186 -111 -233 l-46 -50 35 0 c39 0 50 -10 41 -34 -9 -24 -52 -31 -88 -14 -28 14 -35 13 -76 -4 -25 -11 -92 -25 -150 -32 -95 -11 -110 -10 -157 6 -74 25 -182 19 -176 -10 3 -14 -63 14 -93 40 -11 10 -23 18 -26 18 -9 0 -71 62 -85 85 -64 106 -66 217 -8 420 28 97 33 119 40 176 3 24 7 60 10 79 2 19 7 60 10 90 3 30 8 71 11 90 4 19 8 44 10 55 7 43 14 82 22 115 l8 35 124 12 c438 41 646 50 735 30z m150 -992 c0 -25 -37 -32 -54 -11 -18 21 -4 38 27 34 19 -2 27 -9 27 -23z m225 0 c13 -16 6 -47 -15 -65 -22 -19 -63 -3 -80 30 -14 27 -14 30 3 39 25 15 78 13 92 -4z m-277 -412 c-7 -2 -21 -2 -30 0 -10 3 -4 5 12 5 17 0 24 -2 18 -5z"/>
 <path d="M552 1595 c-41 -7 -82 -21 -93 -31 -29 -26 -83 -234 -113 -434 -6 -39 -17 -83 -25 -105 -41 -103 -49 -252 -20 -345 23 -74 50 -112 108 -151 68 -44 132 -60 266 -65 190 -6 300 27 386 117 51 53 63 77 84 169 17 73 22 230 9 252 -4 6 -8 25 -10 42 -1 17 -7 94 -13 171 -17 204 -40 368 -55 382 -14 15 -446 13 -524 -2z"/>
 </g>
<g id="layer103" fill="#9b7454" stroke="none">
 <path d="M0 985 l0 -985 985 0 985 0 0 985 0 985 -985 0 -985 0 0 -985z m1340 650 c126 -41 254 -96 282 -122 39 -35 63 -172 74 -428 4 -90 14 -182 25 -230 10 -44 19 -103 19 -131 0 -171 -89 -337 -218 -407 -84 -46 -169 -60 -327 -54 -159 5 -228 19 -253 52 -17 21 -23 22 -113 17 -161 -8 -304 30 -444 119 -112 70 -158 144 -171 269 -7 61 16 202 47 289 10 30 33 162 49 292 17 131 36 257 43 281 l13 43 179 17 c275 27 428 36 560 34 108 -3 132 -7 235 -41z"/>
 <path d="M552 1595 c-41 -7 -82 -21 -93 -31 -29 -26 -76 -212 -114 -449 -3 -22 -18 -76 -32 -120 -21 -64 -26 -100 -26 -182 0 -96 2 -106 34 -170 63 -127 173 -177 384 -177 189 -1 299 43 382 152 71 93 82 209 50 542 -30 322 -48 425 -77 440 -28 15 -421 11 -508 -5z"/>
 </g>
<g id="layer104" fill="#faef55" stroke="none">
 <path d="M0 985 l0 -985 985 0 985 0 0 985 0 985 -985 0 -985 0 0 -985z m1340 650 c126 -41 254 -96 282 -122 39 -35 63 -172 74 -428 4 -90 14 -182 25 -230 10 -44 19 -103 19 -131 0 -171 -89 -337 -218 -407 -84 -46 -169 -60 -327 -54 -159 5 -228 19 -253 52 -17 21 -23 22 -113 17 -161 -8 -304 30 -444 119 -112 70 -158 144 -171 269 -7 61 16 202 47 289 10 30 33 162 49 292 17 131 36 257 43 281 l13 43 179 17 c275 27 428 36 560 34 108 -3 132 -7 235 -41z"/>
 <path d="M552 1595 c-41 -7 -82 -21 -93 -31 -29 -26 -76 -212 -114 -449 -3 -22 -18 -76 -32 -120 -21 -64 -26 -100 -26 -182 0 -96 2 -106 34 -170 63 -127 173 -177 384 -177 189 -1 299 43 382 152 71 93 82 209 50 542 -30 322 -48 425 -77 440 -28 15 -421 11 -508 -5z m109 -344 c22 -18 23 -18 56 2 28 16 38 17 62 7 48 -19 73 -110 31 -110 -14 0 -20 7 -20 23 0 49 -49 63 -76 22 -9 -14 -23 -25 -30 -25 -8 0 -19 11 -24 25 -15 41 -70 27 -70 -18 0 -13 -6 -18 -22 -15 -51 7 -2 108 51 108 11 0 29 -8 42 -19z m-154 -176 c25 -18 35 -60 21 -94 l-10 -26 -9 22 c-5 15 -14 21 -24 17 -22 -9 -18 -33 7 -43 l23 -8 -23 -7 c-34 -11 -58 1 -76 39 -13 26 -14 40 -6 62 19 51 57 66 97 38z m433 5 c27 -14 42 -65 28 -98 -9 -21 -12 -23 -15 -9 -5 21 -43 23 -43 2 0 -9 10 -19 22 -24 l23 -8 -23 -7 c-33 -11 -60 2 -78 35 -35 68 24 142 86 109z"/>
 </g>
<g id="layer105" fill="#fcb3af" stroke="none">
 <path d="M0 985 l0 -985 985 0 985 0 0 985 0 985 -985 0 -985 0 0 -985z m1006 899 c19 -9 64 -50 101 -92 103 -116 108 -120 154 -134 26 -7 98 -13 179 -13 167 0 185 -8 195 -88 3 -29 15 -88 25 -132 10 -44 22 -113 25 -153 7 -73 7 -73 58 -115 77 -64 112 -101 131 -142 17 -36 17 -39 1 -76 -10 -21 -44 -64 -76 -94 -59 -55 -59 -55 -59 -113 0 -92 -16 -160 -59 -247 -22 -44 -48 -101 -59 -126 -19 -46 -21 -47 -73 -54 -30 -4 -87 -16 -128 -26 -41 -11 -109 -19 -151 -19 l-77 0 -59 -74 c-133 -166 -206 -166 -339 1 -96 120 -91 118 -288 118 -156 0 -170 1 -183 20 -21 28 -34 83 -34 143 0 39 -6 62 -25 90 -26 40 -55 138 -55 188 0 27 -10 41 -60 84 -33 29 -72 72 -87 97 l-26 44 19 41 c11 26 51 70 109 121 138 124 130 107 130 282 1 82 4 161 8 175 15 48 39 54 208 56 165 2 202 11 231 53 38 54 152 170 180 184 41 21 43 21 84 1z"/>
 <path d="M552 1595 c-41 -7 -82 -21 -93 -31 -29 -26 -76 -212 -114 -449 -3 -22 -18 -76 -32 -120 -21 -64 -26 -100 -26 -182 0 -96 2 -106 34 -170 63 -127 173 -177 384 -177 189 -1 299 43 382 152 71 93 82 209 50 542 -30 322 -48 425 -77 440 -28 15 -421 11 -508 -5z m109 -344 c22 -18 23 -18 56 2 28 16 38 17 62 7 48 -19 73 -110 31 -110 -14 0 -20 7 -20 23 0 49 -49 63 -76 22 -9 -14 -23 -25 -30 -25 -8 0 -19 11 -24 25 -15 41 -70 27 -70 -18 0 -13 -6 -18 -22 -15 -51 7 -2 108 51 108 11 0 29 -8 42 -19z m-154 -176 c25 -18 35 -60 21 -94 l-10 -26 -9 22 c-5 15 -14 21 -24 17 -22 -9 -18 -33 7 -43 l23 -8 -23 -7 c-34 -11 -58 1 -76 39 -13 26 -14 40 -6 62 19 51 57 66 97 38z m433 5 c27 -14 42 -65 28 -98 -9 -21 -12 -23 -15 -9 -5 21 -43 23 -43 2 0 -9 10 -19 22 -24 l23 -8 -23 -7 c-33 -11 -60 2 -78 35 -35 68 24 142 86 109z"/>
 </g>
<g id="layer106" fill="#fbf276" stroke="none">
 <path d="M0 985 l0 -985 985 0 985 0 0 985 0 985 -985 0 -985 0 0 -985z m1006 899 c19 -9 64 -50 101 -92 103 -116 108 -120 154 -134 26 -7 98 -13 179 -13 167 0 185 -8 195 -88 3 -29 15 -88 25 -132 10 -44 22 -113 25 -153 7 -73 7 -73 58 -115 77 -64 112 -101 131 -142 17 -36 17 -39 1 -76 -10 -21 -44 -64 -76 -94 -59 -55 -59 -55 -59 -113 0 -92 -16 -160 -59 -247 -22 -44 -48 -101 -59 -126 -19 -46 -21 -47 -73 -54 -30 -4 -87 -16 -128 -26 -41 -11 -109 -19 -151 -19 l-77 0 -59 -74 c-133 -166 -206 -166 -339 1 -96 120 -91 118 -288 118 -156 0 -170 1 -183 20 -21 28 -34 83 -34 143 0 39 -6 62 -25 90 -26 40 -55 138 -55 188 0 27 -10 41 -60 84 -33 29 -72 72 -87 97 l-26 44 19 41 c11 26 51 70 109 121 138 124 130 107 130 282 1 82 4 161 8 175 15 48 39 54 208 56 165 2 202 11 231 53 38 54 152 170 180 184 41 21 43 21 84 1z"/>
 <path d="M552 1595 c-87 -16 -107 -31 -128 -99 -15 -51 -64 -279 -64 -300 0 -7 26 -11 70 -12 38 0 73 -4 77 -8 21 -20 -98 -46 -128 -28 -21 13 -24 10 -34 -38 -4 -19 -18 -71 -32 -115 -21 -64 -26 -101 -26 -182 0 -96 2 -106 34 -170 63 -127 173 -177 384 -177 189 -1 299 43 382 152 71 93 82 209 50 542 -30 322 -48 425 -77 440 -28 15 -421 11 -508 -5z m109 -344 c22 -18 23 -18 56 2 28 16 38 17 62 7 48 -19 73 -110 31 -110 -14 0 -20 7 -20 23 0 49 -49 63 -76 22 -9 -14 -23 -25 -30 -25 -8 0 -19 11 -24 25 -15 41 -70 27 -70 -18 0 -13 -6 -18 -22 -15 -51 7 -2 108 51 108 11 0 29 -8 42 -19z m377 -77 c53 -15 4 -38 -80 -39 -48 0 -76 15 -64 34 8 12 106 15 144 5z m-531 -99 c25 -18 35 -60 21 -94 l-10 -26 -9 22 c-5 15 -14 21 -24 17 -22 -9 -18 -33 7 -43 l23 -8 -23 -7 c-34 -11 -58 1 -76 39 -13 26 -14 40 -6 62 19 51 57 66 97 38z m433 5 c27 -14 42 -65 28 -98 -9 -21 -12 -23 -15 -9 -5 21 -43 23 -43 2 0 -9 10 -19 22 -24 l23 -8 -23 -7 c-33 -11 -60 2 -78 35 -35 68 24 142 86 109z"/>
 </g>
<g id="layer107" fill="#fdf8b6" stroke="none">
 <path d="M0 985 l0 -985 985 0 985 0 0 985 0 985 -985 0 -985 0 0 -985z m1015 896 c17 -10 71 -62 120 -115 107 -116 115 -119 312 -120 168 -1 182 -8 190 -92 2 -27 13 -85 23 -129 10 -44 22 -112 25 -152 l7 -72 69 -58 c74 -61 114 -111 124 -155 9 -35 -16 -75 -89 -148 -55 -53 -56 -55 -56 -111 0 -89 -17 -158 -59 -244 -21 -44 -42 -92 -45 -106 -11 -51 -37 -70 -106 -79 -36 -5 -92 -16 -125 -25 -33 -8 -92 -15 -132 -15 l-72 0 -63 -74 c-68 -79 -141 -136 -174 -136 -26 0 -96 50 -137 98 -17 20 -57 63 -88 95 l-56 57 -154 1 c-85 1 -165 4 -179 8 -38 10 -60 64 -60 144 0 55 -5 74 -25 105 -26 40 -55 137 -55 187 0 24 -13 41 -70 93 -135 122 -132 152 30 303 82 76 113 112 120 138 6 21 7 86 4 156 -7 137 5 188 51 205 14 5 93 10 175 9 81 0 156 4 167 9 10 6 58 54 108 107 92 101 135 135 170 135 11 0 34 -8 50 -19z"/>
 <path d="M552 1595 c-87 -16 -107 -31 -128 -99 -15 -51 -64 -279 -64 -300 0 -7 26 -11 70 -12 38 0 73 -4 77 -8 21 -20 -98 -46 -128 -28 -21 13 -24 10 -34 -38 -4 -19 -18 -71 -32 -115 -21 -64 -26 -101 -26 -182 0 -96 2 -106 34 -170 63 -127 173 -177 384 -177 189 -1 299 43 382 152 71 93 82 209 50 542 -30 322 -48 425 -77 440 -28 15 -421 11 -508 -5z m109 -344 c22 -18 23 -18 56 2 28 16 38 17 62 7 48 -19 73 -110 31 -110 -14 0 -20 7 -20 23 0 49 -49 63 -76 22 -9 -14 -23 -25 -30 -25 -8 0 -19 11 -24 25 -15 41 -70 27 -70 -18 0 -13 -6 -18 -22 -15 -51 7 -2 108 51 108 11 0 29 -8 42 -19z m377 -77 c53 -15 4 -38 -80 -39 -48 0 -76 15 -64 34 8 12 106 15 144 5z m-531 -99 c25 -18 35 -60 21 -94 l-10 -26 -9 22 c-5 15 -14 21 -24 17 -22 -9 -18 -33 7 -43 l23 -8 -23 -7 c-34 -11 -58 1 -76 39 -13 26 -14 40 -6 62 19 51 57 66 97 38z m433 5 c27 -14 42 -65 28 -98 -9 -21 -12 -23 -15 -9 -5 21 -43 23 -43 2 0 -9 10 -19 22 -24 l23 -8 -23 -7 c-33 -11 -60 2 -78 35 -35 68 24 142 86 109z"/>
 </g>
<g id="layer108" fill="#f9edd9" stroke="none">
 <path d="M0 985 l0 -985 985 0 985 0 0 985 0 985 -985 0 -985 0 0 -985z m1030 890 c20 -14 71 -65 114 -115 59 -68 88 -92 115 -100 20 -5 100 -10 178 -10 133 0 143 -1 168 -23 21 -17 28 -35 32 -72 2 -28 13 -86 23 -130 10 -44 22 -112 25 -150 l7 -71 60 -49 c84 -70 138 -140 138 -180 0 -38 -47 -103 -109 -153 -40 -32 -41 -35 -41 -91 0 -91 -16 -159 -59 -246 -22 -44 -42 -94 -46 -111 -9 -46 -36 -65 -107 -75 -35 -4 -90 -15 -123 -24 -33 -8 -92 -15 -132 -15 l-72 0 -61 -75 c-82 -99 -124 -130 -175 -130 -51 0 -93 31 -176 132 -93 112 -94 113 -281 113 -151 0 -158 1 -185 24 -26 23 -28 30 -32 112 -3 71 -8 94 -27 123 -25 38 -54 135 -55 186 0 23 -12 39 -52 74 -29 24 -67 62 -85 84 -60 75 -38 126 108 252 48 42 93 89 100 106 8 19 13 87 14 185 l1 156 28 24 c27 23 33 24 187 23 187 -1 179 -4 280 116 115 135 168 160 240 110z"/>
 <path d="M552 1595 c-87 -16 -107 -31 -128 -99 -15 -51 -64 -279 -64 -300 0 -7 26 -11 70 -12 38 0 73 -4 77 -8 21 -20 -98 -46 -128 -28 -21 13 -24 10 -34 -38 -4 -19 -18 -71 -32 -115 -21 -64 -26 -101 -26 -182 0 -96 2 -106 34 -170 63 -127 173 -177 384 -177 189 -1 299 43 382 152 71 93 82 209 50 542 -30 322 -48 425 -77 440 -28 15 -421 11 -508 -5z m109 -344 c22 -18 23 -18 56 2 28 16 38 17 62 7 48 -19 73 -110 31 -110 -14 0 -20 7 -20 23 0 49 -49 63 -76 22 -9 -14 -23 -25 -30 -25 -8 0 -19 11 -24 25 -15 41 -70 27 -70 -18 0 -13 -6 -18 -22 -15 -51 7 -2 108 51 108 11 0 29 -8 42 -19z m377 -77 c53 -15 4 -38 -80 -39 -48 0 -76 15 -64 34 8 12 106 15 144 5z m-531 -99 c25 -18 35 -60 21 -94 l-10 -26 -9 22 c-5 15 -14 21 -24 17 -22 -9 -18 -33 7 -43 l23 -8 -23 -7 c-34 -11 -58 1 -76 39 -13 26 -14 40 -6 62 19 51 57 66 97 38z m433 5 c27 -14 42 -65 28 -98 -9 -21 -12 -23 -15 -9 -5 21 -43 23 -43 2 0 -9 10 -19 22 -24 l23 -8 -23 -7 c-33 -11 -60 2 -78 35 -35 68 24 142 86 109z"/>
 </g>
<g id="layer109" fill="#fffefc" stroke="none">
 <path d="M0 985 l0 -985 985 0 985 0 0 985 0 985 -985 0 -985 0 0 -985z m1025 895 c18 -11 62 -53 96 -92 91 -103 95 -106 136 -123 29 -12 67 -15 168 -13 136 3 186 -7 201 -40 11 -28 44 -210 55 -312 6 -52 11 -95 12 -95 1 0 33 -27 71 -60 86 -74 126 -128 126 -170 0 -39 -41 -98 -104 -150 -45 -37 -46 -39 -46 -95 0 -89 -17 -158 -60 -247 -22 -45 -40 -89 -40 -97 0 -50 -43 -86 -104 -86 -18 0 -68 -9 -111 -20 -43 -11 -110 -20 -149 -20 l-72 0 -64 -76 c-149 -177 -201 -177 -354 4 -37 44 -83 88 -101 96 -25 12 -67 16 -178 16 -80 0 -157 4 -170 9 -32 13 -49 64 -50 150 0 56 -5 72 -28 106 -20 29 -31 63 -41 124 l-13 84 -62 54 c-143 125 -138 176 26 320 125 109 121 101 120 278 -1 101 3 159 11 177 17 36 62 53 135 52 33 -1 100 -2 148 -3 104 -2 105 -1 217 126 110 125 156 146 225 103z"/>
 <path d="M795 1552 c-3 -12 -20 -33 -36 -47 -55 -45 -129 -27 -129 32 0 24 -2 25 -42 19 -70 -11 -83 -25 -101 -113 -12 -57 -37 -225 -37 -249 0 -1 14 -4 30 -7 40 -8 38 -25 -5 -43 -42 -17 -50 -54 -12 -54 32 0 64 -25 70 -56 8 -41 -12 -92 -39 -98 -36 -9 -71 3 -79 27 -13 42 -37 -41 -41 -138 -2 -51 0 -79 4 -65 6 20 15 26 46 28 20 2 44 -2 52 -9 20 -16 17 -63 -5 -90 -19 -23 -21 -24 -51 -7 -29 17 -30 17 -20 -2 24 -45 121 -90 196 -90 27 0 31 3 27 19 -5 22 28 61 52 61 24 0 95 -39 102 -55 6 -18 39 -11 103 21 118 59 182 199 146 316 -19 58 -59 122 -51 81 7 -39 -16 -91 -42 -98 -55 -13 -92 18 -93 77 0 56 52 93 98 69 17 -9 20 -7 24 19 4 27 2 30 -21 30 -35 0 -55 15 -48 34 4 11 19 16 43 16 l37 0 -6 128 c-10 199 -31 244 -123 258 -37 5 -43 4 -49 -14z m119 -54 c9 -12 16 -35 16 -50 0 -23 -4 -28 -24 -28 -27 0 -76 54 -76 83 0 27 65 23 84 -5z m-242 -252 c7 -13 13 -12 43 6 31 17 39 19 65 8 38 -16 46 -27 53 -72 5 -34 4 -38 -16 -38 -16 0 -26 9 -34 30 -16 43 -41 49 -67 17 -27 -34 -44 -34 -56 -1 -13 34 -41 28 -60 -14 -11 -23 -21 -31 -35 -30 -30 4 -31 50 -3 89 21 28 27 30 62 26 22 -3 43 -12 48 -21z m-9 -512 c11 -11 -13 -44 -32 -44 -18 0 -35 33 -23 44 7 8 47 7 55 0z"/>
 <path d="M487 994 c-11 -11 -8 -44 3 -44 15 0 24 30 13 41 -5 5 -12 6 -16 3z"/>
 <path d="M920 970 c0 -11 7 -20 15 -20 17 0 18 2 9 24 -9 23 -24 20 -24 -4z"/>
 <path d="M380 720 c0 -7 3 -10 7 -7 3 4 3 10 0 14 -4 3 -7 0 -7 -7z"/>
 </g>

</svg>